<mxfile host="app.diagrams.net" agent="Mozilla/5.0 (Windows NT 10.0; Win64; x64) AppleWebKit/537.36 (KHTML, like Gecko) Chrome/139.0.0.0 Safari/537.36" version="28.1.1" pages="5">
  <diagram name="PÃ¡gina-1" id="lTcTJvcB_Akw92cgS_G7">
    <mxGraphModel dx="2414" dy="664" grid="1" gridSize="10" guides="1" tooltips="1" connect="1" arrows="1" fold="1" page="1" pageScale="1" pageWidth="827" pageHeight="1169" math="0" shadow="0">
      <root>
        <mxCell id="0" />
        <mxCell id="1" parent="0" />
        <mxCell id="3mY6lCcSfnK4vGdbmpv5-1" value="" style="rounded=0;whiteSpace=wrap;html=1;" vertex="1" parent="1">
          <mxGeometry x="70" y="20" width="740" height="430" as="geometry" />
        </mxCell>
        <mxCell id="3mY6lCcSfnK4vGdbmpv5-2" value="&lt;font style=&quot;vertical-align: inherit;&quot; dir=&quot;auto&quot;&gt;&lt;font style=&quot;vertical-align: inherit;&quot; dir=&quot;auto&quot;&gt;administrador&lt;/font&gt;&lt;/font&gt;" style="shape=umlActor;verticalLabelPosition=bottom;verticalAlign=top;html=1;outlineConnect=0;" vertex="1" parent="1">
          <mxGeometry x="-20" y="180" width="30" height="60" as="geometry" />
        </mxCell>
        <mxCell id="3mY6lCcSfnK4vGdbmpv5-4" value="&lt;font style=&quot;vertical-align: inherit;&quot; dir=&quot;auto&quot;&gt;&lt;font style=&quot;vertical-align: inherit;&quot; dir=&quot;auto&quot;&gt;usuario&lt;/font&gt;&lt;/font&gt;" style="shape=umlActor;verticalLabelPosition=bottom;verticalAlign=top;html=1;outlineConnect=0;" vertex="1" parent="1">
          <mxGeometry x="880" y="190" width="30" height="60" as="geometry" />
        </mxCell>
        <mxCell id="3mY6lCcSfnK4vGdbmpv5-8" value="&lt;font style=&quot;vertical-align: inherit;&quot; dir=&quot;auto&quot;&gt;&lt;font style=&quot;vertical-align: inherit;&quot; dir=&quot;auto&quot;&gt;inicio de sesion&lt;/font&gt;&lt;/font&gt;" style="ellipse;whiteSpace=wrap;html=1;" vertex="1" parent="1">
          <mxGeometry x="620" y="60" width="60" height="50" as="geometry" />
        </mxCell>
        <mxCell id="3mY6lCcSfnK4vGdbmpv5-9" value="" style="endArrow=none;html=1;rounded=0;entryX=1;entryY=0.5;entryDx=0;entryDy=0;" edge="1" parent="1" source="3mY6lCcSfnK4vGdbmpv5-3" target="3mY6lCcSfnK4vGdbmpv5-8">
          <mxGeometry width="50" height="50" relative="1" as="geometry">
            <mxPoint x="380" y="390" as="sourcePoint" />
            <mxPoint x="430" y="340" as="targetPoint" />
          </mxGeometry>
        </mxCell>
        <mxCell id="3mY6lCcSfnK4vGdbmpv5-10" value="&lt;font style=&quot;vertical-align: inherit;&quot; dir=&quot;auto&quot;&gt;&lt;font style=&quot;vertical-align: inherit;&quot; dir=&quot;auto&quot;&gt;&lt;font style=&quot;vertical-align: inherit;&quot; dir=&quot;auto&quot;&gt;&lt;font style=&quot;vertical-align: inherit;&quot; dir=&quot;auto&quot;&gt;enviar mensaje&lt;/font&gt;&lt;/font&gt;&lt;/font&gt;&lt;/font&gt;" style="ellipse;whiteSpace=wrap;html=1;" vertex="1" parent="1">
          <mxGeometry x="400" y="195" width="60" height="60" as="geometry" />
        </mxCell>
        <mxCell id="3mY6lCcSfnK4vGdbmpv5-11" value="" style="endArrow=none;html=1;rounded=0;entryX=1;entryY=0.5;entryDx=0;entryDy=0;exitX=0.5;exitY=0.5;exitDx=0;exitDy=0;exitPerimeter=0;" edge="1" parent="1" source="3mY6lCcSfnK4vGdbmpv5-21" target="3mY6lCcSfnK4vGdbmpv5-10">
          <mxGeometry width="50" height="50" relative="1" as="geometry">
            <mxPoint x="380" y="390" as="sourcePoint" />
            <mxPoint x="430" y="340" as="targetPoint" />
          </mxGeometry>
        </mxCell>
        <mxCell id="3mY6lCcSfnK4vGdbmpv5-12" value="&lt;font style=&quot;vertical-align: inherit;&quot; dir=&quot;auto&quot;&gt;&lt;font style=&quot;vertical-align: inherit;&quot; dir=&quot;auto&quot;&gt;&lt;font style=&quot;vertical-align: inherit;&quot; dir=&quot;auto&quot;&gt;&lt;font style=&quot;vertical-align: inherit;&quot; dir=&quot;auto&quot;&gt;recibir mensaje&lt;/font&gt;&lt;/font&gt;&lt;/font&gt;&lt;/font&gt;" style="ellipse;whiteSpace=wrap;html=1;" vertex="1" parent="1">
          <mxGeometry x="450" y="70" width="70" height="60" as="geometry" />
        </mxCell>
        <mxCell id="3mY6lCcSfnK4vGdbmpv5-13" value="&lt;font style=&quot;vertical-align: inherit;&quot; dir=&quot;auto&quot;&gt;&lt;font style=&quot;vertical-align: inherit;&quot; dir=&quot;auto&quot;&gt;adjuntar archivos&lt;/font&gt;&lt;/font&gt;" style="ellipse;whiteSpace=wrap;html=1;" vertex="1" parent="1">
          <mxGeometry x="620" y="380" width="80" height="40" as="geometry" />
        </mxCell>
        <mxCell id="3mY6lCcSfnK4vGdbmpv5-14" value="&lt;font style=&quot;vertical-align: inherit;&quot; dir=&quot;auto&quot;&gt;&lt;font style=&quot;vertical-align: inherit;&quot; dir=&quot;auto&quot;&gt;&lt;font style=&quot;vertical-align: inherit;&quot; dir=&quot;auto&quot;&gt;&lt;font style=&quot;vertical-align: inherit;&quot; dir=&quot;auto&quot;&gt;reportar mensajes&lt;/font&gt;&lt;/font&gt;&lt;/font&gt;&lt;/font&gt;" style="ellipse;whiteSpace=wrap;html=1;" vertex="1" parent="1">
          <mxGeometry x="640" y="270" width="60" height="70" as="geometry" />
        </mxCell>
        <mxCell id="3mY6lCcSfnK4vGdbmpv5-15" value="&lt;font style=&quot;vertical-align: inherit;&quot; dir=&quot;auto&quot;&gt;&lt;font style=&quot;vertical-align: inherit;&quot; dir=&quot;auto&quot;&gt;&lt;font style=&quot;vertical-align: inherit;&quot; dir=&quot;auto&quot;&gt;&lt;font style=&quot;vertical-align: inherit;&quot; dir=&quot;auto&quot;&gt;&lt;font style=&quot;vertical-align: inherit;&quot; dir=&quot;auto&quot;&gt;&lt;font style=&quot;vertical-align: inherit;&quot; dir=&quot;auto&quot;&gt;chats de moderacion&lt;/font&gt;&lt;/font&gt;&lt;/font&gt;&lt;/font&gt;&lt;/font&gt;&lt;/font&gt;" style="ellipse;whiteSpace=wrap;html=1;" vertex="1" parent="1">
          <mxGeometry x="160" y="190" width="80" height="60" as="geometry" />
        </mxCell>
        <mxCell id="3mY6lCcSfnK4vGdbmpv5-16" value="" style="endArrow=none;html=1;rounded=0;exitX=1;exitY=0.5;exitDx=0;exitDy=0;" edge="1" parent="1" source="3mY6lCcSfnK4vGdbmpv5-23" target="3mY6lCcSfnK4vGdbmpv5-4">
          <mxGeometry width="50" height="50" relative="1" as="geometry">
            <mxPoint x="380" y="210" as="sourcePoint" />
            <mxPoint x="430" y="160" as="targetPoint" />
          </mxGeometry>
        </mxCell>
        <mxCell id="3mY6lCcSfnK4vGdbmpv5-17" value="" style="endArrow=none;html=1;rounded=0;exitX=1;exitY=0.5;exitDx=0;exitDy=0;entryX=0.5;entryY=0.5;entryDx=0;entryDy=0;entryPerimeter=0;" edge="1" parent="1" source="3mY6lCcSfnK4vGdbmpv5-25" target="3mY6lCcSfnK4vGdbmpv5-4">
          <mxGeometry width="50" height="50" relative="1" as="geometry">
            <mxPoint x="800" y="416" as="sourcePoint" />
            <mxPoint x="940" y="330" as="targetPoint" />
          </mxGeometry>
        </mxCell>
        <mxCell id="3mY6lCcSfnK4vGdbmpv5-18" value="" style="endArrow=none;html=1;rounded=0;exitX=0.31;exitY=1.021;exitDx=0;exitDy=0;entryX=0.5;entryY=0;entryDx=0;entryDy=0;exitPerimeter=0;" edge="1" parent="1" source="3mY6lCcSfnK4vGdbmpv5-29" target="3mY6lCcSfnK4vGdbmpv5-10">
          <mxGeometry width="50" height="50" relative="1" as="geometry">
            <mxPoint x="470" y="346" as="sourcePoint" />
            <mxPoint x="610" y="260" as="targetPoint" />
          </mxGeometry>
        </mxCell>
        <mxCell id="3mY6lCcSfnK4vGdbmpv5-19" value="" style="endArrow=none;html=1;rounded=0;entryX=0;entryY=0.5;entryDx=0;entryDy=0;" edge="1" parent="1" source="3mY6lCcSfnK4vGdbmpv5-27" target="3mY6lCcSfnK4vGdbmpv5-15">
          <mxGeometry width="50" height="50" relative="1" as="geometry">
            <mxPoint x="180" y="396" as="sourcePoint" />
            <mxPoint x="320" y="310" as="targetPoint" />
          </mxGeometry>
        </mxCell>
        <mxCell id="3mY6lCcSfnK4vGdbmpv5-20" value="" style="endArrow=none;html=1;rounded=0;entryX=1;entryY=0.5;entryDx=0;entryDy=0;" edge="1" parent="1" source="3mY6lCcSfnK4vGdbmpv5-4" target="3mY6lCcSfnK4vGdbmpv5-3">
          <mxGeometry width="50" height="50" relative="1" as="geometry">
            <mxPoint x="880" y="211" as="sourcePoint" />
            <mxPoint x="680" y="85" as="targetPoint" />
          </mxGeometry>
        </mxCell>
        <mxCell id="3mY6lCcSfnK4vGdbmpv5-3" value="&lt;font style=&quot;vertical-align: inherit;&quot; dir=&quot;auto&quot;&gt;&lt;font style=&quot;vertical-align: inherit;&quot; dir=&quot;auto&quot;&gt;include&lt;/font&gt;&lt;/font&gt;" style="text;html=1;align=center;verticalAlign=middle;resizable=0;points=[];autosize=1;strokeColor=none;fillColor=none;fontSize=16;" vertex="1" parent="1">
          <mxGeometry x="700" y="110" width="70" height="30" as="geometry" />
        </mxCell>
        <mxCell id="3mY6lCcSfnK4vGdbmpv5-22" value="" style="endArrow=none;html=1;rounded=0;entryX=1;entryY=0.5;entryDx=0;entryDy=0;exitX=0.5;exitY=0.5;exitDx=0;exitDy=0;exitPerimeter=0;" edge="1" parent="1" source="3mY6lCcSfnK4vGdbmpv5-4" target="3mY6lCcSfnK4vGdbmpv5-21">
          <mxGeometry width="50" height="50" relative="1" as="geometry">
            <mxPoint x="895" y="220" as="sourcePoint" />
            <mxPoint x="630" y="210" as="targetPoint" />
          </mxGeometry>
        </mxCell>
        <mxCell id="3mY6lCcSfnK4vGdbmpv5-21" value="&lt;font style=&quot;vertical-align: inherit;&quot; dir=&quot;auto&quot;&gt;&lt;font style=&quot;vertical-align: inherit;&quot; dir=&quot;auto&quot;&gt;include&lt;/font&gt;&lt;/font&gt;" style="text;html=1;align=center;verticalAlign=middle;resizable=0;points=[];autosize=1;strokeColor=none;fillColor=none;fontSize=16;" vertex="1" parent="1">
          <mxGeometry x="690" y="195" width="70" height="30" as="geometry" />
        </mxCell>
        <mxCell id="3mY6lCcSfnK4vGdbmpv5-24" value="" style="endArrow=none;html=1;rounded=0;exitX=1;exitY=0.5;exitDx=0;exitDy=0;" edge="1" parent="1" source="3mY6lCcSfnK4vGdbmpv5-14" target="3mY6lCcSfnK4vGdbmpv5-23">
          <mxGeometry width="50" height="50" relative="1" as="geometry">
            <mxPoint x="700" y="305" as="sourcePoint" />
            <mxPoint x="880" y="227" as="targetPoint" />
          </mxGeometry>
        </mxCell>
        <mxCell id="3mY6lCcSfnK4vGdbmpv5-23" value="&lt;font style=&quot;vertical-align: inherit;&quot; dir=&quot;auto&quot;&gt;&lt;font style=&quot;vertical-align: inherit;&quot; dir=&quot;auto&quot;&gt;include&lt;/font&gt;&lt;/font&gt;" style="text;html=1;align=center;verticalAlign=middle;resizable=0;points=[];autosize=1;strokeColor=none;fillColor=none;fontSize=16;" vertex="1" parent="1">
          <mxGeometry x="720" y="260" width="70" height="30" as="geometry" />
        </mxCell>
        <mxCell id="3mY6lCcSfnK4vGdbmpv5-26" value="" style="endArrow=none;html=1;rounded=0;exitX=1;exitY=0.5;exitDx=0;exitDy=0;entryX=0.5;entryY=0.5;entryDx=0;entryDy=0;entryPerimeter=0;" edge="1" parent="1" source="3mY6lCcSfnK4vGdbmpv5-13" target="3mY6lCcSfnK4vGdbmpv5-25">
          <mxGeometry width="50" height="50" relative="1" as="geometry">
            <mxPoint x="700" y="400" as="sourcePoint" />
            <mxPoint x="895" y="220" as="targetPoint" />
          </mxGeometry>
        </mxCell>
        <mxCell id="3mY6lCcSfnK4vGdbmpv5-25" value="&lt;font style=&quot;vertical-align: inherit;&quot; dir=&quot;auto&quot;&gt;&lt;font style=&quot;vertical-align: inherit;&quot; dir=&quot;auto&quot;&gt;include&lt;/font&gt;&lt;/font&gt;" style="text;html=1;align=center;verticalAlign=middle;resizable=0;points=[];autosize=1;strokeColor=none;fillColor=none;fontSize=16;" vertex="1" parent="1">
          <mxGeometry x="730" y="320" width="70" height="30" as="geometry" />
        </mxCell>
        <mxCell id="3mY6lCcSfnK4vGdbmpv5-28" value="" style="endArrow=none;html=1;rounded=0;entryX=0;entryY=0.5;entryDx=0;entryDy=0;" edge="1" parent="1" source="3mY6lCcSfnK4vGdbmpv5-2" target="3mY6lCcSfnK4vGdbmpv5-27">
          <mxGeometry width="50" height="50" relative="1" as="geometry">
            <mxPoint x="10" y="211" as="sourcePoint" />
            <mxPoint x="160" y="220" as="targetPoint" />
          </mxGeometry>
        </mxCell>
        <mxCell id="3mY6lCcSfnK4vGdbmpv5-27" value="&lt;font style=&quot;vertical-align: inherit;&quot; dir=&quot;auto&quot;&gt;&lt;font style=&quot;vertical-align: inherit;&quot; dir=&quot;auto&quot;&gt;extends&lt;/font&gt;&lt;/font&gt;&lt;div&gt;&lt;font style=&quot;vertical-align: inherit;&quot; dir=&quot;auto&quot;&gt;&lt;font style=&quot;vertical-align: inherit;&quot; dir=&quot;auto&quot;&gt;&lt;br&gt;&lt;/font&gt;&lt;/font&gt;&lt;/div&gt;" style="text;html=1;align=center;verticalAlign=middle;resizable=0;points=[];autosize=1;strokeColor=none;fillColor=none;" vertex="1" parent="1">
          <mxGeometry x="70" y="195" width="70" height="40" as="geometry" />
        </mxCell>
        <mxCell id="3mY6lCcSfnK4vGdbmpv5-30" value="" style="endArrow=none;html=1;rounded=0;exitX=0.31;exitY=1.021;exitDx=0;exitDy=0;entryX=0.5;entryY=0;entryDx=0;entryDy=0;exitPerimeter=0;" edge="1" parent="1" source="3mY6lCcSfnK4vGdbmpv5-12" target="3mY6lCcSfnK4vGdbmpv5-29">
          <mxGeometry width="50" height="50" relative="1" as="geometry">
            <mxPoint x="472" y="131" as="sourcePoint" />
            <mxPoint x="430" y="195" as="targetPoint" />
          </mxGeometry>
        </mxCell>
        <mxCell id="3mY6lCcSfnK4vGdbmpv5-29" value="&lt;font style=&quot;vertical-align: inherit;&quot; dir=&quot;auto&quot;&gt;&lt;font style=&quot;vertical-align: inherit;&quot; dir=&quot;auto&quot;&gt;extends&lt;/font&gt;&lt;/font&gt;&lt;div&gt;&lt;font style=&quot;vertical-align: inherit;&quot; dir=&quot;auto&quot;&gt;&lt;font style=&quot;vertical-align: inherit;&quot; dir=&quot;auto&quot;&gt;&lt;br&gt;&lt;/font&gt;&lt;/font&gt;&lt;/div&gt;" style="text;html=1;align=center;verticalAlign=middle;resizable=0;points=[];autosize=1;strokeColor=none;fillColor=none;" vertex="1" parent="1">
          <mxGeometry x="420" y="140" width="70" height="40" as="geometry" />
        </mxCell>
      </root>
    </mxGraphModel>
  </diagram>
  <diagram id="MvlH1n1K7NKcRdVqku-l" name="13">
    <mxGraphModel dx="1111" dy="465" grid="1" gridSize="10" guides="1" tooltips="1" connect="1" arrows="1" fold="1" page="1" pageScale="1" pageWidth="827" pageHeight="1169" math="0" shadow="0">
      <root>
        <mxCell id="0" />
        <mxCell id="1" parent="0" />
        <mxCell id="eW9J4WXQWYQo2P8srMuD-2" value="" style="rounded=0;whiteSpace=wrap;html=1;" vertex="1" parent="1">
          <mxGeometry x="100" y="180" width="570" height="480" as="geometry" />
        </mxCell>
        <mxCell id="eW9J4WXQWYQo2P8srMuD-3" value="usuario" style="shape=umlActor;verticalLabelPosition=bottom;verticalAlign=top;html=1;outlineConnect=0;" vertex="1" parent="1">
          <mxGeometry x="690" y="420" width="30" height="60" as="geometry" />
        </mxCell>
        <mxCell id="eW9J4WXQWYQo2P8srMuD-5" value="crear nota&amp;nbsp;" style="ellipse;whiteSpace=wrap;html=1;" vertex="1" parent="1">
          <mxGeometry x="440" y="190" width="90" height="70" as="geometry" />
        </mxCell>
        <mxCell id="eW9J4WXQWYQo2P8srMuD-6" value="editar nota" style="ellipse;whiteSpace=wrap;html=1;" vertex="1" parent="1">
          <mxGeometry x="450" y="315" width="100" height="70" as="geometry" />
        </mxCell>
        <mxCell id="eW9J4WXQWYQo2P8srMuD-7" value="organizar notas" style="ellipse;whiteSpace=wrap;html=1;" vertex="1" parent="1">
          <mxGeometry x="414" y="420" width="120" height="80" as="geometry" />
        </mxCell>
        <mxCell id="eW9J4WXQWYQo2P8srMuD-8" value="sincronizar nube" style="ellipse;whiteSpace=wrap;html=1;" vertex="1" parent="1">
          <mxGeometry x="220" y="250" width="120" height="80" as="geometry" />
        </mxCell>
        <mxCell id="eW9J4WXQWYQo2P8srMuD-9" value="eliminar nota" style="ellipse;whiteSpace=wrap;html=1;" vertex="1" parent="1">
          <mxGeometry x="470" y="540" width="90" height="70" as="geometry" />
        </mxCell>
        <mxCell id="eW9J4WXQWYQo2P8srMuD-10" value="" style="endArrow=none;html=1;rounded=0;entryX=1;entryY=0.6;entryDx=0;entryDy=0;entryPerimeter=0;exitX=0;exitY=0.3333333333333333;exitDx=0;exitDy=0;exitPerimeter=0;" edge="1" parent="1" source="eW9J4WXQWYQo2P8srMuD-19" target="eW9J4WXQWYQo2P8srMuD-5">
          <mxGeometry width="50" height="50" relative="1" as="geometry">
            <mxPoint x="510" y="450" as="sourcePoint" />
            <mxPoint x="560" y="400" as="targetPoint" />
          </mxGeometry>
        </mxCell>
        <mxCell id="eW9J4WXQWYQo2P8srMuD-11" value="" style="endArrow=none;html=1;rounded=0;entryX=1;entryY=0.5;entryDx=0;entryDy=0;" edge="1" parent="1" source="eW9J4WXQWYQo2P8srMuD-20" target="eW9J4WXQWYQo2P8srMuD-6">
          <mxGeometry width="50" height="50" relative="1" as="geometry">
            <mxPoint x="790" y="628" as="sourcePoint" />
            <mxPoint x="630" y="420" as="targetPoint" />
          </mxGeometry>
        </mxCell>
        <mxCell id="eW9J4WXQWYQo2P8srMuD-12" value="" style="endArrow=none;html=1;rounded=0;entryX=1;entryY=0.5;entryDx=0;entryDy=0;" edge="1" parent="1" source="eW9J4WXQWYQo2P8srMuD-21" target="eW9J4WXQWYQo2P8srMuD-7">
          <mxGeometry width="50" height="50" relative="1" as="geometry">
            <mxPoint x="740" y="590" as="sourcePoint" />
            <mxPoint x="600" y="500" as="targetPoint" />
          </mxGeometry>
        </mxCell>
        <mxCell id="eW9J4WXQWYQo2P8srMuD-13" value="" style="endArrow=none;html=1;rounded=0;entryX=1;entryY=0.5;entryDx=0;entryDy=0;" edge="1" parent="1" source="eW9J4WXQWYQo2P8srMuD-22" target="eW9J4WXQWYQo2P8srMuD-9">
          <mxGeometry width="50" height="50" relative="1" as="geometry">
            <mxPoint x="816" y="530" as="sourcePoint" />
            <mxPoint x="660" y="539" as="targetPoint" />
          </mxGeometry>
        </mxCell>
        <mxCell id="eW9J4WXQWYQo2P8srMuD-14" value="" style="endArrow=none;html=1;rounded=0;entryX=1;entryY=0.5;entryDx=0;entryDy=0;exitX=0;exitY=0.5;exitDx=0;exitDy=0;" edge="1" parent="1" source="eW9J4WXQWYQo2P8srMuD-18" target="eW9J4WXQWYQo2P8srMuD-8">
          <mxGeometry width="50" height="50" relative="1" as="geometry">
            <mxPoint x="486" y="350" as="sourcePoint" />
            <mxPoint x="330" y="359" as="targetPoint" />
          </mxGeometry>
        </mxCell>
        <mxCell id="eW9J4WXQWYQo2P8srMuD-15" value="" style="endArrow=none;html=1;rounded=0;entryX=1;entryY=0.5;entryDx=0;entryDy=0;exitX=0;exitY=0.5;exitDx=0;exitDy=0;" edge="1" parent="1" source="eW9J4WXQWYQo2P8srMuD-16" target="eW9J4WXQWYQo2P8srMuD-8">
          <mxGeometry width="50" height="50" relative="1" as="geometry">
            <mxPoint x="526" y="230" as="sourcePoint" />
            <mxPoint x="370" y="239" as="targetPoint" />
          </mxGeometry>
        </mxCell>
        <mxCell id="eW9J4WXQWYQo2P8srMuD-17" value="" style="endArrow=none;html=1;rounded=0;entryX=1;entryY=0.5;entryDx=0;entryDy=0;exitX=0;exitY=0.5;exitDx=0;exitDy=0;" edge="1" parent="1" source="eW9J4WXQWYQo2P8srMuD-5" target="eW9J4WXQWYQo2P8srMuD-16">
          <mxGeometry width="50" height="50" relative="1" as="geometry">
            <mxPoint x="440" y="225" as="sourcePoint" />
            <mxPoint x="340" y="290" as="targetPoint" />
          </mxGeometry>
        </mxCell>
        <mxCell id="eW9J4WXQWYQo2P8srMuD-16" value="include" style="text;html=1;align=center;verticalAlign=middle;resizable=0;points=[];autosize=1;strokeColor=none;fillColor=none;" vertex="1" parent="1">
          <mxGeometry x="360" y="250" width="60" height="30" as="geometry" />
        </mxCell>
        <mxCell id="eW9J4WXQWYQo2P8srMuD-23" value="" style="endArrow=none;html=1;rounded=0;entryX=1;entryY=0.5;entryDx=0;entryDy=0;" edge="1" parent="1" source="eW9J4WXQWYQo2P8srMuD-3" target="eW9J4WXQWYQo2P8srMuD-21">
          <mxGeometry width="50" height="50" relative="1" as="geometry">
            <mxPoint x="690" y="451" as="sourcePoint" />
            <mxPoint x="534" y="460" as="targetPoint" />
          </mxGeometry>
        </mxCell>
        <mxCell id="eW9J4WXQWYQo2P8srMuD-21" value="include" style="text;html=1;align=center;verticalAlign=middle;resizable=0;points=[];autosize=1;strokeColor=none;fillColor=none;" vertex="1" parent="1">
          <mxGeometry x="560" y="445" width="60" height="30" as="geometry" />
        </mxCell>
        <mxCell id="eW9J4WXQWYQo2P8srMuD-24" value="" style="endArrow=none;html=1;rounded=0;entryX=1;entryY=0.5;entryDx=0;entryDy=0;" edge="1" parent="1" source="eW9J4WXQWYQo2P8srMuD-3" target="eW9J4WXQWYQo2P8srMuD-20">
          <mxGeometry width="50" height="50" relative="1" as="geometry">
            <mxPoint x="690" y="440" as="sourcePoint" />
            <mxPoint x="550" y="350" as="targetPoint" />
          </mxGeometry>
        </mxCell>
        <mxCell id="eW9J4WXQWYQo2P8srMuD-20" value="include" style="text;html=1;align=center;verticalAlign=middle;resizable=0;points=[];autosize=1;strokeColor=none;fillColor=none;" vertex="1" parent="1">
          <mxGeometry x="570" y="370" width="60" height="30" as="geometry" />
        </mxCell>
        <mxCell id="eW9J4WXQWYQo2P8srMuD-25" value="" style="endArrow=none;html=1;rounded=0;entryX=1;entryY=0.6;entryDx=0;entryDy=0;entryPerimeter=0;exitX=0;exitY=0.3333333333333333;exitDx=0;exitDy=0;exitPerimeter=0;" edge="1" parent="1" source="eW9J4WXQWYQo2P8srMuD-3" target="eW9J4WXQWYQo2P8srMuD-19">
          <mxGeometry width="50" height="50" relative="1" as="geometry">
            <mxPoint x="690" y="440" as="sourcePoint" />
            <mxPoint x="530" y="232" as="targetPoint" />
          </mxGeometry>
        </mxCell>
        <mxCell id="eW9J4WXQWYQo2P8srMuD-19" value="include" style="text;html=1;align=center;verticalAlign=middle;resizable=0;points=[];autosize=1;strokeColor=none;fillColor=none;" vertex="1" parent="1">
          <mxGeometry x="540" y="270" width="60" height="30" as="geometry" />
        </mxCell>
        <mxCell id="eW9J4WXQWYQo2P8srMuD-26" value="" style="endArrow=none;html=1;rounded=0;entryX=1;entryY=0.5;entryDx=0;entryDy=0;exitX=0;exitY=0.5;exitDx=0;exitDy=0;" edge="1" parent="1" source="eW9J4WXQWYQo2P8srMuD-6" target="eW9J4WXQWYQo2P8srMuD-18">
          <mxGeometry width="50" height="50" relative="1" as="geometry">
            <mxPoint x="450" y="350" as="sourcePoint" />
            <mxPoint x="340" y="290" as="targetPoint" />
          </mxGeometry>
        </mxCell>
        <mxCell id="eW9J4WXQWYQo2P8srMuD-18" value="include" style="text;html=1;align=center;verticalAlign=middle;resizable=0;points=[];autosize=1;strokeColor=none;fillColor=none;" vertex="1" parent="1">
          <mxGeometry x="370" y="300" width="60" height="30" as="geometry" />
        </mxCell>
        <mxCell id="eW9J4WXQWYQo2P8srMuD-27" value="" style="endArrow=none;html=1;rounded=0;entryX=1;entryY=0.5;entryDx=0;entryDy=0;" edge="1" parent="1" source="eW9J4WXQWYQo2P8srMuD-3" target="eW9J4WXQWYQo2P8srMuD-22">
          <mxGeometry width="50" height="50" relative="1" as="geometry">
            <mxPoint x="690" y="463" as="sourcePoint" />
            <mxPoint x="560" y="575" as="targetPoint" />
          </mxGeometry>
        </mxCell>
        <mxCell id="eW9J4WXQWYQo2P8srMuD-22" value="include" style="text;html=1;align=center;verticalAlign=middle;resizable=0;points=[];autosize=1;strokeColor=none;fillColor=none;" vertex="1" parent="1">
          <mxGeometry x="580" y="520" width="60" height="30" as="geometry" />
        </mxCell>
        <mxCell id="eW9J4WXQWYQo2P8srMuD-28" value="block de notas" style="text;html=1;align=center;verticalAlign=middle;resizable=0;points=[];autosize=1;strokeColor=none;fillColor=none;" vertex="1" parent="1">
          <mxGeometry x="700" y="238" width="100" height="30" as="geometry" />
        </mxCell>
      </root>
    </mxGraphModel>
  </diagram>
  <diagram id="XKuzHrqhUH_7ZfjdyVZE" name="14">
    <mxGraphModel dx="1938" dy="465" grid="1" gridSize="10" guides="1" tooltips="1" connect="1" arrows="1" fold="1" page="1" pageScale="1" pageWidth="827" pageHeight="1169" math="0" shadow="0">
      <root>
        <mxCell id="0" />
        <mxCell id="1" parent="0" />
        <mxCell id="CdSDNnaaTm4BTBX1-DiB-1" value="" style="rounded=0;whiteSpace=wrap;html=1;" vertex="1" parent="1">
          <mxGeometry x="70" y="30" width="730" height="410" as="geometry" />
        </mxCell>
        <mxCell id="CdSDNnaaTm4BTBX1-DiB-3" value="usuario" style="shape=umlActor;verticalLabelPosition=bottom;verticalAlign=top;html=1;outlineConnect=0;" vertex="1" parent="1">
          <mxGeometry x="870" y="180" width="30" height="60" as="geometry" />
        </mxCell>
        <mxCell id="CdSDNnaaTm4BTBX1-DiB-4" value="colaborador" style="shape=umlActor;verticalLabelPosition=bottom;verticalAlign=top;html=1;outlineConnect=0;" vertex="1" parent="1">
          <mxGeometry x="-30" y="180" width="30" height="60" as="geometry" />
        </mxCell>
        <mxCell id="CdSDNnaaTm4BTBX1-DiB-5" value="crear tarea" style="ellipse;whiteSpace=wrap;html=1;" vertex="1" parent="1">
          <mxGeometry x="600" y="70" width="70" height="50" as="geometry" />
        </mxCell>
        <mxCell id="CdSDNnaaTm4BTBX1-DiB-6" value="asignar tarea" style="ellipse;whiteSpace=wrap;html=1;" vertex="1" parent="1">
          <mxGeometry x="320" y="70" width="70" height="50" as="geometry" />
        </mxCell>
        <mxCell id="CdSDNnaaTm4BTBX1-DiB-7" value="tarea completa" style="ellipse;whiteSpace=wrap;html=1;" vertex="1" parent="1">
          <mxGeometry x="630" y="280" width="70" height="50" as="geometry" />
        </mxCell>
        <mxCell id="CdSDNnaaTm4BTBX1-DiB-8" value="generar recordatorio" style="ellipse;whiteSpace=wrap;html=1;" vertex="1" parent="1">
          <mxGeometry x="120" y="290" width="70" height="50" as="geometry" />
        </mxCell>
        <mxCell id="CdSDNnaaTm4BTBX1-DiB-9" value="consultar progreso" style="ellipse;whiteSpace=wrap;html=1;" vertex="1" parent="1">
          <mxGeometry x="250" y="140" width="70" height="50" as="geometry" />
        </mxCell>
        <mxCell id="CdSDNnaaTm4BTBX1-DiB-10" value="" style="endArrow=none;html=1;rounded=0;entryX=1;entryY=0.5;entryDx=0;entryDy=0;exitX=0;exitY=0.5;exitDx=0;exitDy=0;" edge="1" parent="1" source="CdSDNnaaTm4BTBX1-DiB-12" target="CdSDNnaaTm4BTBX1-DiB-6">
          <mxGeometry width="50" height="50" relative="1" as="geometry">
            <mxPoint x="610" y="280" as="sourcePoint" />
            <mxPoint x="660" y="230" as="targetPoint" />
          </mxGeometry>
        </mxCell>
        <mxCell id="CdSDNnaaTm4BTBX1-DiB-11" value="" style="endArrow=none;html=1;rounded=0;exitX=1;exitY=0.5;exitDx=0;exitDy=0;entryX=0;entryY=0.5;entryDx=0;entryDy=0;" edge="1" parent="1" source="CdSDNnaaTm4BTBX1-DiB-13" target="CdSDNnaaTm4BTBX1-DiB-9">
          <mxGeometry width="50" height="50" relative="1" as="geometry">
            <mxPoint x="700" y="310" as="sourcePoint" />
            <mxPoint x="750" y="260" as="targetPoint" />
          </mxGeometry>
        </mxCell>
        <mxCell id="CdSDNnaaTm4BTBX1-DiB-14" value="" style="endArrow=none;html=1;rounded=0;exitX=1;exitY=0.5;exitDx=0;exitDy=0;entryX=0;entryY=0.5;entryDx=0;entryDy=0;" edge="1" parent="1" source="CdSDNnaaTm4BTBX1-DiB-8" target="CdSDNnaaTm4BTBX1-DiB-13">
          <mxGeometry width="50" height="50" relative="1" as="geometry">
            <mxPoint x="300" y="245" as="sourcePoint" />
            <mxPoint x="400" y="245" as="targetPoint" />
          </mxGeometry>
        </mxCell>
        <mxCell id="CdSDNnaaTm4BTBX1-DiB-13" value="extends" style="text;html=1;align=center;verticalAlign=middle;resizable=0;points=[];autosize=1;strokeColor=none;fillColor=none;" vertex="1" parent="1">
          <mxGeometry x="170" y="230" width="70" height="30" as="geometry" />
        </mxCell>
        <mxCell id="CdSDNnaaTm4BTBX1-DiB-15" value="" style="endArrow=none;html=1;rounded=0;entryX=1;entryY=0.5;entryDx=0;entryDy=0;exitX=0;exitY=0.5;exitDx=0;exitDy=0;" edge="1" parent="1" source="CdSDNnaaTm4BTBX1-DiB-5" target="CdSDNnaaTm4BTBX1-DiB-12">
          <mxGeometry width="50" height="50" relative="1" as="geometry">
            <mxPoint x="670" y="195" as="sourcePoint" />
            <mxPoint x="550" y="195" as="targetPoint" />
          </mxGeometry>
        </mxCell>
        <mxCell id="CdSDNnaaTm4BTBX1-DiB-12" value="include" style="text;html=1;align=center;verticalAlign=middle;resizable=0;points=[];autosize=1;strokeColor=none;fillColor=none;" vertex="1" parent="1">
          <mxGeometry x="460" y="80" width="60" height="30" as="geometry" />
        </mxCell>
        <mxCell id="CdSDNnaaTm4BTBX1-DiB-16" value="" style="endArrow=none;html=1;rounded=0;exitX=1;exitY=0.5;exitDx=0;exitDy=0;" edge="1" parent="1" source="CdSDNnaaTm4BTBX1-DiB-5" target="CdSDNnaaTm4BTBX1-DiB-3">
          <mxGeometry width="50" height="50" relative="1" as="geometry">
            <mxPoint x="620" y="260" as="sourcePoint" />
            <mxPoint x="670" y="210" as="targetPoint" />
          </mxGeometry>
        </mxCell>
        <mxCell id="CdSDNnaaTm4BTBX1-DiB-18" value="" style="endArrow=none;html=1;rounded=0;exitX=1;exitY=0.5;exitDx=0;exitDy=0;" edge="1" parent="1" source="CdSDNnaaTm4BTBX1-DiB-7" target="CdSDNnaaTm4BTBX1-DiB-3">
          <mxGeometry width="50" height="50" relative="1" as="geometry">
            <mxPoint x="420" y="290" as="sourcePoint" />
            <mxPoint x="470" y="240" as="targetPoint" />
          </mxGeometry>
        </mxCell>
        <mxCell id="CdSDNnaaTm4BTBX1-DiB-19" value="" style="endArrow=none;html=1;rounded=0;exitX=0;exitY=0.5;exitDx=0;exitDy=0;" edge="1" parent="1" source="CdSDNnaaTm4BTBX1-DiB-9" target="CdSDNnaaTm4BTBX1-DiB-4">
          <mxGeometry width="50" height="50" relative="1" as="geometry">
            <mxPoint x="420" y="290" as="sourcePoint" />
            <mxPoint x="470" y="240" as="targetPoint" />
          </mxGeometry>
        </mxCell>
        <mxCell id="CdSDNnaaTm4BTBX1-DiB-20" value="" style="endArrow=none;html=1;rounded=0;exitX=0;exitY=0.5;exitDx=0;exitDy=0;" edge="1" parent="1" source="CdSDNnaaTm4BTBX1-DiB-8" target="CdSDNnaaTm4BTBX1-DiB-4">
          <mxGeometry width="50" height="50" relative="1" as="geometry">
            <mxPoint x="460" y="280" as="sourcePoint" />
            <mxPoint x="210" y="322" as="targetPoint" />
          </mxGeometry>
        </mxCell>
        <mxCell id="CdSDNnaaTm4BTBX1-DiB-21" value="gestion&amp;nbsp; tareas" style="text;html=1;align=center;verticalAlign=middle;resizable=0;points=[];autosize=1;strokeColor=none;fillColor=none;" vertex="1" parent="1">
          <mxGeometry x="830" y="88" width="100" height="30" as="geometry" />
        </mxCell>
      </root>
    </mxGraphModel>
  </diagram>
  <diagram id="f2LZJCs1KMvrqcvcoJdE" name="15">
    <mxGraphModel dx="1111" dy="1634" grid="1" gridSize="10" guides="1" tooltips="1" connect="1" arrows="1" fold="1" page="1" pageScale="1" pageWidth="827" pageHeight="1169" math="0" shadow="0">
      <root>
        <mxCell id="0" />
        <mxCell id="1" parent="0" />
        <mxCell id="JSw4wDgtU05g0rhULAjd-1" value="" style="rounded=0;whiteSpace=wrap;html=1;" vertex="1" parent="1">
          <mxGeometry x="80" y="-80" width="680" height="440" as="geometry" />
        </mxCell>
        <mxCell id="JSw4wDgtU05g0rhULAjd-2" value="usuario" style="shape=umlActor;verticalLabelPosition=bottom;verticalAlign=top;html=1;outlineConnect=0;" vertex="1" parent="1">
          <mxGeometry x="827" y="130" width="30" height="60" as="geometry" />
        </mxCell>
        <mxCell id="JSw4wDgtU05g0rhULAjd-4" value="registrar ejercicio" style="ellipse;whiteSpace=wrap;html=1;" vertex="1" parent="1">
          <mxGeometry x="530" y="-50" width="120" height="80" as="geometry" />
        </mxCell>
        <mxCell id="JSw4wDgtU05g0rhULAjd-5" value="consultar estadisticas" style="ellipse;whiteSpace=wrap;html=1;" vertex="1" parent="1">
          <mxGeometry x="330" y="30" width="120" height="80" as="geometry" />
        </mxCell>
        <mxCell id="JSw4wDgtU05g0rhULAjd-6" value="establecer metas" style="ellipse;whiteSpace=wrap;html=1;" vertex="1" parent="1">
          <mxGeometry x="560" y="100" width="120" height="80" as="geometry" />
        </mxCell>
        <mxCell id="JSw4wDgtU05g0rhULAjd-7" value="crear plan nutricional" style="ellipse;whiteSpace=wrap;html=1;" vertex="1" parent="1">
          <mxGeometry x="560" y="240" width="120" height="80" as="geometry" />
        </mxCell>
        <mxCell id="JSw4wDgtU05g0rhULAjd-8" value="" style="endArrow=none;html=1;rounded=0;exitX=1;exitY=0.5;exitDx=0;exitDy=0;" edge="1" parent="1" source="JSw4wDgtU05g0rhULAjd-17" target="JSw4wDgtU05g0rhULAjd-2">
          <mxGeometry width="50" height="50" relative="1" as="geometry">
            <mxPoint x="580" y="210" as="sourcePoint" />
            <mxPoint x="630" y="160" as="targetPoint" />
          </mxGeometry>
        </mxCell>
        <mxCell id="JSw4wDgtU05g0rhULAjd-9" value="" style="endArrow=none;html=1;rounded=0;exitX=1;exitY=0.5;exitDx=0;exitDy=0;" edge="1" parent="1" source="JSw4wDgtU05g0rhULAjd-18" target="JSw4wDgtU05g0rhULAjd-2">
          <mxGeometry width="50" height="50" relative="1" as="geometry">
            <mxPoint x="740" y="130" as="sourcePoint" />
            <mxPoint x="887" y="275" as="targetPoint" />
          </mxGeometry>
        </mxCell>
        <mxCell id="JSw4wDgtU05g0rhULAjd-10" value="" style="endArrow=none;html=1;rounded=0;exitX=1;exitY=0.5;exitDx=0;exitDy=0;" edge="1" parent="1" source="JSw4wDgtU05g0rhULAjd-19" target="JSw4wDgtU05g0rhULAjd-2">
          <mxGeometry width="50" height="50" relative="1" as="geometry">
            <mxPoint x="720" y="280" as="sourcePoint" />
            <mxPoint x="867" y="425" as="targetPoint" />
          </mxGeometry>
        </mxCell>
        <mxCell id="JSw4wDgtU05g0rhULAjd-11" value="" style="endArrow=none;html=1;rounded=0;exitX=1;exitY=0.5;exitDx=0;exitDy=0;entryX=0;entryY=0.5;entryDx=0;entryDy=0;" edge="1" parent="1" source="JSw4wDgtU05g0rhULAjd-13" target="JSw4wDgtU05g0rhULAjd-4">
          <mxGeometry width="50" height="50" relative="1" as="geometry">
            <mxPoint x="400" y="200" as="sourcePoint" />
            <mxPoint x="547" y="345" as="targetPoint" />
          </mxGeometry>
        </mxCell>
        <mxCell id="JSw4wDgtU05g0rhULAjd-12" value="" style="endArrow=none;html=1;rounded=0;exitX=1;exitY=0.5;exitDx=0;exitDy=0;entryX=0;entryY=0.5;entryDx=0;entryDy=0;" edge="1" parent="1" source="JSw4wDgtU05g0rhULAjd-14" target="JSw4wDgtU05g0rhULAjd-6">
          <mxGeometry width="50" height="50" relative="1" as="geometry">
            <mxPoint x="460" y="250" as="sourcePoint" />
            <mxPoint x="607" y="395" as="targetPoint" />
          </mxGeometry>
        </mxCell>
        <mxCell id="JSw4wDgtU05g0rhULAjd-15" value="" style="endArrow=none;html=1;rounded=0;exitX=1;exitY=0.5;exitDx=0;exitDy=0;entryX=0;entryY=0.5;entryDx=0;entryDy=0;" edge="1" parent="1" source="JSw4wDgtU05g0rhULAjd-5" target="JSw4wDgtU05g0rhULAjd-14">
          <mxGeometry width="50" height="50" relative="1" as="geometry">
            <mxPoint x="450" y="70" as="sourcePoint" />
            <mxPoint x="560" y="140" as="targetPoint" />
          </mxGeometry>
        </mxCell>
        <mxCell id="JSw4wDgtU05g0rhULAjd-14" value="extends" style="text;html=1;align=center;verticalAlign=middle;resizable=0;points=[];autosize=1;strokeColor=none;fillColor=none;" vertex="1" parent="1">
          <mxGeometry x="480" y="100" width="70" height="30" as="geometry" />
        </mxCell>
        <mxCell id="JSw4wDgtU05g0rhULAjd-16" value="" style="endArrow=none;html=1;rounded=0;exitX=1;exitY=0.5;exitDx=0;exitDy=0;entryX=0;entryY=0.5;entryDx=0;entryDy=0;" edge="1" parent="1" source="JSw4wDgtU05g0rhULAjd-5" target="JSw4wDgtU05g0rhULAjd-13">
          <mxGeometry width="50" height="50" relative="1" as="geometry">
            <mxPoint x="450" y="70" as="sourcePoint" />
            <mxPoint x="560" as="targetPoint" />
          </mxGeometry>
        </mxCell>
        <mxCell id="JSw4wDgtU05g0rhULAjd-13" value="include" style="text;html=1;align=center;verticalAlign=middle;resizable=0;points=[];autosize=1;strokeColor=none;fillColor=none;" vertex="1" parent="1">
          <mxGeometry x="460" y="10" width="60" height="30" as="geometry" />
        </mxCell>
        <mxCell id="JSw4wDgtU05g0rhULAjd-20" value="" style="endArrow=none;html=1;rounded=0;exitX=1;exitY=0.5;exitDx=0;exitDy=0;" edge="1" parent="1" source="JSw4wDgtU05g0rhULAjd-7" target="JSw4wDgtU05g0rhULAjd-19">
          <mxGeometry width="50" height="50" relative="1" as="geometry">
            <mxPoint x="680" y="280" as="sourcePoint" />
            <mxPoint x="827" y="171" as="targetPoint" />
          </mxGeometry>
        </mxCell>
        <mxCell id="JSw4wDgtU05g0rhULAjd-19" value="include" style="text;html=1;align=center;verticalAlign=middle;resizable=0;points=[];autosize=1;strokeColor=none;fillColor=none;" vertex="1" parent="1">
          <mxGeometry x="700" y="240" width="60" height="30" as="geometry" />
        </mxCell>
        <mxCell id="JSw4wDgtU05g0rhULAjd-21" value="" style="endArrow=none;html=1;rounded=0;exitX=1;exitY=0.5;exitDx=0;exitDy=0;" edge="1" parent="1" source="JSw4wDgtU05g0rhULAjd-6" target="JSw4wDgtU05g0rhULAjd-18">
          <mxGeometry width="50" height="50" relative="1" as="geometry">
            <mxPoint x="680" y="140" as="sourcePoint" />
            <mxPoint x="827" y="158" as="targetPoint" />
          </mxGeometry>
        </mxCell>
        <mxCell id="JSw4wDgtU05g0rhULAjd-18" value="include" style="text;html=1;align=center;verticalAlign=middle;resizable=0;points=[];autosize=1;strokeColor=none;fillColor=none;" vertex="1" parent="1">
          <mxGeometry x="700" y="130" width="60" height="30" as="geometry" />
        </mxCell>
        <mxCell id="JSw4wDgtU05g0rhULAjd-22" value="" style="endArrow=none;html=1;rounded=0;exitX=1;exitY=0.5;exitDx=0;exitDy=0;" edge="1" parent="1" source="JSw4wDgtU05g0rhULAjd-4" target="JSw4wDgtU05g0rhULAjd-17">
          <mxGeometry width="50" height="50" relative="1" as="geometry">
            <mxPoint x="680" as="sourcePoint" />
            <mxPoint x="827" y="145" as="targetPoint" />
          </mxGeometry>
        </mxCell>
        <mxCell id="JSw4wDgtU05g0rhULAjd-17" value="include" style="text;html=1;align=center;verticalAlign=middle;resizable=0;points=[];autosize=1;strokeColor=none;fillColor=none;" vertex="1" parent="1">
          <mxGeometry x="670" y="30" width="60" height="30" as="geometry" />
        </mxCell>
        <mxCell id="JSw4wDgtU05g0rhULAjd-23" value="aplicacion fitnes" style="text;html=1;align=center;verticalAlign=middle;resizable=0;points=[];autosize=1;strokeColor=none;fillColor=none;" vertex="1" parent="1">
          <mxGeometry x="895" y="-42" width="110" height="30" as="geometry" />
        </mxCell>
      </root>
    </mxGraphModel>
  </diagram>
  <diagram id="kk6YWAJRDyAKalZGQuj-" name="16">
    <mxGraphModel dx="2216" dy="581" grid="1" gridSize="10" guides="1" tooltips="1" connect="1" arrows="1" fold="1" page="1" pageScale="1" pageWidth="827" pageHeight="1169" math="0" shadow="0">
      <root>
        <mxCell id="0" />
        <mxCell id="1" parent="0" />
        <mxCell id="RW1cxI7vjPu2UpT6Kyen-1" value="" style="rounded=0;whiteSpace=wrap;html=1;" vertex="1" parent="1">
          <mxGeometry x="-720" y="100" width="680" height="600" as="geometry" />
        </mxCell>
        <mxCell id="RW1cxI7vjPu2UpT6Kyen-2" value="usuario" style="shape=umlActor;verticalLabelPosition=bottom;verticalAlign=top;html=1;outlineConnect=0;" vertex="1" parent="1">
          <mxGeometry x="27" y="320" width="30" height="60" as="geometry" />
        </mxCell>
        <mxCell id="RW1cxI7vjPu2UpT6Kyen-3" value="guardar contacto" style="ellipse;whiteSpace=wrap;html=1;" vertex="1" parent="1">
          <mxGeometry x="-270" y="140" width="120" height="80" as="geometry" />
        </mxCell>
        <mxCell id="RW1cxI7vjPu2UpT6Kyen-4" value="importar" style="ellipse;whiteSpace=wrap;html=1;" vertex="1" parent="1">
          <mxGeometry x="-470" y="220" width="120" height="80" as="geometry" />
        </mxCell>
        <mxCell id="RW1cxI7vjPu2UpT6Kyen-5" value="editar contacto" style="ellipse;whiteSpace=wrap;html=1;" vertex="1" parent="1">
          <mxGeometry x="-240" y="290" width="120" height="80" as="geometry" />
        </mxCell>
        <mxCell id="RW1cxI7vjPu2UpT6Kyen-6" value="eliminar contacto" style="ellipse;whiteSpace=wrap;html=1;" vertex="1" parent="1">
          <mxGeometry x="-240" y="430" width="120" height="80" as="geometry" />
        </mxCell>
        <mxCell id="RW1cxI7vjPu2UpT6Kyen-7" value="" style="endArrow=none;html=1;rounded=0;exitX=1;exitY=0.5;exitDx=0;exitDy=0;" edge="1" parent="1" source="RW1cxI7vjPu2UpT6Kyen-21" target="RW1cxI7vjPu2UpT6Kyen-2">
          <mxGeometry width="50" height="50" relative="1" as="geometry">
            <mxPoint x="-220" y="400" as="sourcePoint" />
            <mxPoint x="-170" y="350" as="targetPoint" />
          </mxGeometry>
        </mxCell>
        <mxCell id="RW1cxI7vjPu2UpT6Kyen-8" value="" style="endArrow=none;html=1;rounded=0;exitX=1;exitY=0.5;exitDx=0;exitDy=0;" edge="1" parent="1" source="RW1cxI7vjPu2UpT6Kyen-19" target="RW1cxI7vjPu2UpT6Kyen-2">
          <mxGeometry width="50" height="50" relative="1" as="geometry">
            <mxPoint x="-60" y="320" as="sourcePoint" />
            <mxPoint x="87" y="465" as="targetPoint" />
          </mxGeometry>
        </mxCell>
        <mxCell id="RW1cxI7vjPu2UpT6Kyen-9" value="" style="endArrow=none;html=1;rounded=0;exitX=1;exitY=0.5;exitDx=0;exitDy=0;" edge="1" parent="1" source="RW1cxI7vjPu2UpT6Kyen-17" target="RW1cxI7vjPu2UpT6Kyen-2">
          <mxGeometry width="50" height="50" relative="1" as="geometry">
            <mxPoint x="-80" y="470" as="sourcePoint" />
            <mxPoint x="67" y="615" as="targetPoint" />
          </mxGeometry>
        </mxCell>
        <mxCell id="RW1cxI7vjPu2UpT6Kyen-10" value="" style="endArrow=none;html=1;rounded=0;exitX=1;exitY=0.5;exitDx=0;exitDy=0;entryX=0;entryY=0.5;entryDx=0;entryDy=0;" edge="1" parent="1" source="RW1cxI7vjPu2UpT6Kyen-15" target="RW1cxI7vjPu2UpT6Kyen-3">
          <mxGeometry width="50" height="50" relative="1" as="geometry">
            <mxPoint x="-400" y="390" as="sourcePoint" />
            <mxPoint x="-253" y="535" as="targetPoint" />
          </mxGeometry>
        </mxCell>
        <mxCell id="RW1cxI7vjPu2UpT6Kyen-14" value="" style="endArrow=none;html=1;rounded=0;exitX=1;exitY=0.5;exitDx=0;exitDy=0;entryX=0;entryY=0.5;entryDx=0;entryDy=0;" edge="1" parent="1" source="RW1cxI7vjPu2UpT6Kyen-4" target="RW1cxI7vjPu2UpT6Kyen-15">
          <mxGeometry width="50" height="50" relative="1" as="geometry">
            <mxPoint x="-350" y="260" as="sourcePoint" />
            <mxPoint x="-240" y="190" as="targetPoint" />
          </mxGeometry>
        </mxCell>
        <mxCell id="RW1cxI7vjPu2UpT6Kyen-15" value="include" style="text;html=1;align=center;verticalAlign=middle;resizable=0;points=[];autosize=1;strokeColor=none;fillColor=none;" vertex="1" parent="1">
          <mxGeometry x="-340" y="200" width="60" height="30" as="geometry" />
        </mxCell>
        <mxCell id="RW1cxI7vjPu2UpT6Kyen-16" value="" style="endArrow=none;html=1;rounded=0;exitX=1;exitY=0.5;exitDx=0;exitDy=0;" edge="1" parent="1" source="RW1cxI7vjPu2UpT6Kyen-6" target="RW1cxI7vjPu2UpT6Kyen-17">
          <mxGeometry width="50" height="50" relative="1" as="geometry">
            <mxPoint x="-120" y="470" as="sourcePoint" />
            <mxPoint x="27" y="361" as="targetPoint" />
          </mxGeometry>
        </mxCell>
        <mxCell id="RW1cxI7vjPu2UpT6Kyen-17" value="include" style="text;html=1;align=center;verticalAlign=middle;resizable=0;points=[];autosize=1;strokeColor=none;fillColor=none;" vertex="1" parent="1">
          <mxGeometry x="-100" y="430" width="60" height="30" as="geometry" />
        </mxCell>
        <mxCell id="RW1cxI7vjPu2UpT6Kyen-18" value="" style="endArrow=none;html=1;rounded=0;exitX=1;exitY=0.5;exitDx=0;exitDy=0;" edge="1" parent="1" source="RW1cxI7vjPu2UpT6Kyen-5" target="RW1cxI7vjPu2UpT6Kyen-19">
          <mxGeometry width="50" height="50" relative="1" as="geometry">
            <mxPoint x="-120" y="330" as="sourcePoint" />
            <mxPoint x="27" y="348" as="targetPoint" />
          </mxGeometry>
        </mxCell>
        <mxCell id="RW1cxI7vjPu2UpT6Kyen-19" value="include" style="text;html=1;align=center;verticalAlign=middle;resizable=0;points=[];autosize=1;strokeColor=none;fillColor=none;" vertex="1" parent="1">
          <mxGeometry x="-100" y="320" width="60" height="30" as="geometry" />
        </mxCell>
        <mxCell id="RW1cxI7vjPu2UpT6Kyen-20" value="" style="endArrow=none;html=1;rounded=0;exitX=1;exitY=0.5;exitDx=0;exitDy=0;" edge="1" parent="1" source="RW1cxI7vjPu2UpT6Kyen-3" target="RW1cxI7vjPu2UpT6Kyen-21">
          <mxGeometry width="50" height="50" relative="1" as="geometry">
            <mxPoint x="-120" y="190" as="sourcePoint" />
            <mxPoint x="27" y="335" as="targetPoint" />
          </mxGeometry>
        </mxCell>
        <mxCell id="RW1cxI7vjPu2UpT6Kyen-21" value="include" style="text;html=1;align=center;verticalAlign=middle;resizable=0;points=[];autosize=1;strokeColor=none;fillColor=none;" vertex="1" parent="1">
          <mxGeometry x="-130" y="220" width="60" height="30" as="geometry" />
        </mxCell>
        <mxCell id="RW1cxI7vjPu2UpT6Kyen-22" value="buscar contacto" style="ellipse;whiteSpace=wrap;html=1;" vertex="1" parent="1">
          <mxGeometry x="-270" y="590" width="120" height="80" as="geometry" />
        </mxCell>
        <mxCell id="RW1cxI7vjPu2UpT6Kyen-23" value="" style="endArrow=none;html=1;rounded=0;exitX=1;exitY=0.5;exitDx=0;exitDy=0;" edge="1" parent="1" source="RW1cxI7vjPu2UpT6Kyen-22" target="RW1cxI7vjPu2UpT6Kyen-24">
          <mxGeometry width="50" height="50" relative="1" as="geometry">
            <mxPoint x="-150" y="630" as="sourcePoint" />
            <mxPoint x="-3" y="521" as="targetPoint" />
          </mxGeometry>
        </mxCell>
        <mxCell id="RW1cxI7vjPu2UpT6Kyen-24" value="include" style="text;html=1;align=center;verticalAlign=middle;resizable=0;points=[];autosize=1;strokeColor=none;fillColor=none;" vertex="1" parent="1">
          <mxGeometry x="-130" y="590" width="60" height="30" as="geometry" />
        </mxCell>
        <mxCell id="RW1cxI7vjPu2UpT6Kyen-25" value="" style="endArrow=none;html=1;rounded=0;exitX=0.95;exitY=0.3;exitDx=0;exitDy=0;exitPerimeter=0;" edge="1" parent="1" source="RW1cxI7vjPu2UpT6Kyen-24" target="RW1cxI7vjPu2UpT6Kyen-2">
          <mxGeometry width="50" height="50" relative="1" as="geometry">
            <mxPoint x="-530" y="580" as="sourcePoint" />
            <mxPoint x="-480" y="530" as="targetPoint" />
          </mxGeometry>
        </mxCell>
        <mxCell id="RW1cxI7vjPu2UpT6Kyen-26" value="gestion de contactos" style="text;html=1;align=center;verticalAlign=middle;resizable=0;points=[];autosize=1;strokeColor=none;fillColor=none;" vertex="1" parent="1">
          <mxGeometry x="115" y="138" width="130" height="30" as="geometry" />
        </mxCell>
      </root>
    </mxGraphModel>
  </diagram>
</mxfile>
